{
  "accessors": [
    {
      "bufferView": 2,
      "componentType": 5126,
      "count": 18081,
      "max": [
        32.03535079956055,
        22.03032112121582,
        117.65257263183594
      ],
      "min": [
        -7.689566135406494,
        -22.31113052368164,
        -1.1920928955078125e-07
      ],
      "type": "VEC3"
    },
    {
      "bufferView": 2,
      "byteOffset": 216972,
      "componentType": 5126,
      "count": 18081,
      "max": [
        0.9999967217445374,
        1.0,
        1.0
      ],
      "min": [
        -0.9999967217445374,
        -1.0,
        -0.9999998807907104
      ],
      "type": "VEC3"
    },
    {
      "bufferView": 1,
      "componentType": 5126,
      "count": 18081,
      "max": [
        1.0006641149520874,
        0.9929094910621643
      ],
      "min": [
        0.0033989250659942627,
        0.00560915470123291
      ],
      "type": "VEC2"
    },
    {
      "bufferView": 0,
      "componentType": 5125,
      "count": 43950,
      "type": "SCALAR"
    }
  ],
  "asset": {
    "extras": {
      "author": "Matt Caddie (https://sketchfab.com/MattCaddie)",
      "license": "CC-BY-4.0 (http://creativecommons.org/licenses/by/4.0/)",
      "source": "https://sketchfab.com/3d-models/saxophone-f72747715883480b9555a75558b3e9cd",
      "title": "Saxophone"
    },
    "generator": "Sketchfab-12.66.0",
    "version": "2.0"
  },
  "bufferViews": [
    {
      "buffer": 0,
      "byteLength": 175800,
      "name": "floatBufferViews",
      "target": 34963
    },
    {
      "buffer": 0,
      "byteLength": 144648,
      "byteOffset": 175800,
      "byteStride": 8,
      "name": "floatBufferViews",
      "target": 34962
    },
    {
      "buffer": 0,
      "byteLength": 433944,
      "byteOffset": 320448,
      "byteStride": 12,
      "name": "floatBufferViews",
      "target": 34962
    }
  ],
  "buffers": [
    {
      "byteLength": 754392,
      "uri": "scene.bin"
    }
  ],
  "images": [
    {
      "uri": "textures/lambert1_baseColor.png"
    },
    {
      "uri": "textures/lambert1_metallicRoughness.png"
    }
  ],
  "materials": [
    {
      "doubleSided": true,
      "name": "lambert1",
      "pbrMetallicRoughness": {
        "baseColorTexture": {
          "index": 0
        },
        "metallicRoughnessTexture": {
          "index": 1
        }
      }
    }
  ],
  "meshes": [
    {
      "name": "Saxophone_lambert1_0",
      "primitives": [
        {
          "attributes": {
            "NORMAL": 1,
            "POSITION": 0,
            "TEXCOORD_0": 2
          },
          "indices": 3,
          "material": 0,
          "mode": 4
        }
      ]
    }
  ],
  "nodes": [
    {
      "children": [
        1
      ],
      "matrix": [
        0.9999880194664001,
        3.3241273056613363e-16,
        0.004899275489151478,
        0.0,
        3.3263322651855276e-16,
        -1.0,
        1.3191437010654297e-16,
        0.0,
        0.004899275489151478,
        -1.3028395079708665e-16,
        -0.9999880194664001,
        0.0,
        0.0008334240992553532,
        -58.966560363769545,
        58.62633895874022,
        1.0
      ],
      "name": "Sketchfab_model"
    },
    {
      "children": [
        2
      ],
      "matrix": [
        1.0,
        0.0,
        0.0,
        0.0,
        0.0,
        0.0,
        1.0,
        0.0,
        0.0,
        -1.0,
        0.0,
        0.0,
        0.0,
        0.0,
        0.0,
        1.0
      ],
      "name": "0f69ffd7c7a744a58bc7e377dcd5e161.fbx"
    },
    {
      "children": [
        3
      ],
      "name": "RootNode"
    },
    {
      "children": [
        4
      ],
      "name": "Saxophone"
    },
    {
      "mesh": 0,
      "name": "Saxophone_lambert1_0"
    }
  ],
  "samplers": [
    {
      "magFilter": 9729,
      "minFilter": 9987,
      "wrapS": 10497,
      "wrapT": 10497
    }
  ],
  "scene": 0,
  "scenes": [
    {
      "name": "Sketchfab_Scene",
      "nodes": [
        0
      ]
    }
  ],
  "textures": [
    {
      "sampler": 0,
      "source": 0
    },
    {
      "sampler": 0,
      "source": 1
    }
  ]
}
